<?xml version="1.0" encoding="UTF-8" standalone="no"?>
<!-- Created with Inkscape (http://www.inkscape.org/) -->

<svg
   width="46.109154mm"
   height="47.027859mm"
   viewBox="0 0 46.109154 47.027859"
   version="1.1"
   id="svg5"
   xml:space="preserve"
   inkscape:version="1.2 (dc2aeda, 2022-05-15)"
   sodipodi:docname="logo.svg"
   xmlns:inkscape="http://www.inkscape.org/namespaces/inkscape"
   xmlns:sodipodi="http://sodipodi.sourceforge.net/DTD/sodipodi-0.dtd"
   xmlns:xlink="http://www.w3.org/1999/xlink"
   xmlns="http://www.w3.org/2000/svg"
   xmlns:svg="http://www.w3.org/2000/svg"><sodipodi:namedview
     id="namedview7"
     pagecolor="#ffffff"
     bordercolor="#000000"
     borderopacity="0.25"
     inkscape:showpageshadow="2"
     inkscape:pageopacity="0.0"
     inkscape:pagecheckerboard="0"
     inkscape:deskcolor="#d1d1d1"
     inkscape:document-units="mm"
     showgrid="false"
     inkscape:zoom="0.24209611"
     inkscape:cx="45.4365"
     inkscape:cy="952.1012"
     inkscape:window-width="1512"
     inkscape:window-height="945"
     inkscape:window-x="0"
     inkscape:window-y="37"
     inkscape:window-maximized="0"
     inkscape:current-layer="g585" /><defs
     id="defs2"><linearGradient
       inkscape:collect="always"
       id="linearGradient5697"><stop
         style="stop-color:#3070b6;stop-opacity:1;"
         offset="0"
         id="stop5693" /><stop
         style="stop-color:#64b4bc;stop-opacity:1;"
         offset="1"
         id="stop5695" /></linearGradient><linearGradient
       inkscape:collect="always"
       id="linearGradient1607"><stop
         style="stop-color:#ff6600;stop-opacity:1;"
         offset="0"
         id="stop1603" /><stop
         style="stop-color:#ff6600;stop-opacity:0;"
         offset="1"
         id="stop1605" /></linearGradient><linearGradient
       inkscape:collect="always"
       xlink:href="#linearGradient1607"
       id="linearGradient1609"
       x1="-85.359543"
       y1="131.4269"
       x2="-72.031693"
       y2="214.52997"
       gradientUnits="userSpaceOnUse" /><linearGradient
       inkscape:collect="always"
       xlink:href="#linearGradient5697"
       id="linearGradient5699"
       x1="-149.24821"
       y1="117.34169"
       x2="-20.372759"
       y2="117.34169"
       gradientUnits="userSpaceOnUse" /></defs><g
     inkscape:label="Layer 1"
     inkscape:groupmode="layer"
     id="layer1"
     transform="translate(-6.5223186,-4.2524678)"><g
       id="g585"
       transform="translate(-192.17337,1.0676298)"
       style="display:inline"><g
         id="g11570"
         transform="matrix(0.33267144,0.00753256,0,0.35692953,248.34631,-25.48255)"
         inkscape:export-filename="icon.png"
         inkscape:export-xdpi="96"
         inkscape:export-ydpi="96"><path
           style="fill:url(#linearGradient5699);fill-opacity:1;stroke-width:0.264583"
           d="m -146.73391,139.87367 c -0.79195,-10.22841 -11.48532,-26.15904 18.22517,-30.37528 3.16396,18.88426 22.87958,11.81441 18.22518,-2.73378 l 43.132898,-7.290064 c 3.760806,19.700254 22.602878,10.580614 17.617651,-3.037528 10.861464,-2.244351 25.927395,-6.498171 29.160252,22.173952 z"
           id="path1262"
           sodipodi:nodetypes="ccccccc" /><path
           id="path1367"
           style="fill:url(#linearGradient1609);fill-opacity:1;stroke-width:0.264583"
           d="m -20.445693,119.62216 -126.008847,21.68343 9.9782,65.21411 c 0,0 1.02226,3.72987 3.96204,5.98155 2.93973,2.2518 5.3051,2.25671 5.3051,2.25671 l 105.516554,-18.71101 c 0,0 4.791773,-1.32126 7.962822,-5.62704 3.170998,-4.30585 3.084049,-8.89662 3.084049,-8.89662 z m -23.836271,17.42736 2.499589,13.74903 -13.124264,1.87482 -3.124357,-13.12426 z m -31.87299,5.62446 2.499589,13.74955 -13.124264,1.87482 -3.124874,-13.12426 z m -29.998686,4.9997 2.50011,13.74955 -13.12427,1.87482 -3.12487,-13.12427 z m 67.163342,16.36334 2.499589,13.74903 -13.124263,1.87482 -3.124357,-13.12426 z m -31.87299,5.62446 2.499589,13.74955 -13.124263,1.87482 -3.124874,-13.12426 z m -29.998682,4.9997 2.500102,13.74955 -13.124262,1.87482 -3.12487,-13.12427 z" /><path
           style="fill:#ff0000;stroke-width:0.264583"
           d="m -126.23186,96.26855 c 0.36057,-4.699566 7.84758,-5.434399 9.42624,-1.639347 l 3.07378,17.008217 c 0.36057,6.33379 -7.19465,8.13604 -10.45084,2.04918 z"
           id="path1593"
           sodipodi:nodetypes="ccccc" /><path
           style="fill:#ff0000;stroke-width:0.264583"
           d="m -64.987802,85.648194 c 0.36057,-4.699566 7.847574,-5.434399 9.426234,-1.639347 l 3.073766,17.008213 c 0.360571,6.33379 -7.194633,8.13604 -10.450824,2.04918 z"
           id="path1595"
           sodipodi:nodetypes="ccccc" /></g></g></g></svg>
